<svg width="180" height="37" viewBox="0 0 180 37" fill="none" xmlns="http://www.w3.org/2000/svg">
<path d="M13.2941 23.593H1.22352V1H21.3294V5.53971H6.15293V14.1353H13.2941V18.1765H6.15293V23.593H13.2941Z" fill="currentColor"/>
<path d="M37.1652 13.9294C37.1652 11.5353 36.5652 9.53529 35.3652 7.92941C34.1652 6.32353 32.5063 5.52353 30.3887 5.52353C28.271 5.52353 26.6122 6.32353 25.4122 7.92941C24.2122 9.53529 23.6122 11.5353 23.6122 13.9294C23.6122 16.3235 24.2122 18.3235 25.4122 19.9294C26.6122 21.5353 28.271 22.3353 30.3887 22.3353C32.5063 22.3353 34.1652 21.5353 35.3652 19.9294C36.5652 18.3235 37.1652 16.3235 37.1652 13.9294ZM32.2357 13.9294C32.2357 15.4588 31.9181 16.6353 31.2828 17.4588C30.6475 18.2824 29.8009 18.7059 28.7425 18.7059C27.6841 18.7059 26.8371 18.2824 26.2018 17.4588C25.5665 16.6353 25.2488 15.4588 25.2488 13.9294C25.2488 12.3824 25.5665 11.2 26.2018 10.3765C26.8371 9.55294 27.6841 9.12941 28.7425 9.12941C29.8009 9.12941 30.6475 9.55294 31.2828 10.3765C31.9181 11.2 32.2357 12.3824 32.2357 13.9294Z" fill="currentColor"/>
<path d="M51.3259 23.593H48.4483L42.7937 1H45.741L49.887 18.2412L53.9626 1H56.91L51.3259 23.593Z" fill="currentColor"/>
<path d="M68.528 23.593H58.6221V1H68.528V5.53971H61.4395V10.0882H67.8247V14.2235H61.4395V19.0532H68.528V23.593Z" fill="currentColor"/>
<path d="M78.3333 22.3059C77.6277 22.9529 76.7109 23.2765 75.583 23.2765C74.6054 23.2765 73.8054 23.0118 73.183 22.4824C72.5606 21.9529 72.2494 21.2353 72.2494 20.3294C72.2494 19.3412 72.5855 18.5765 73.2577 18.0353L78.3333 13.8824V1H70.622V19.2235C70.622 20.4588 70.922 21.4647 71.522 22.2412C72.122 23.0176 72.9333 23.5824 73.9554 23.9353C74.9775 24.2882 76.122 24.4647 77.3887 24.4647C78.3333 24.4647 79.222 24.3412 80.0554 24.0941V22.2588C79.2554 22.3706 78.6887 22.3588 78.3554 22.3118L78.3333 22.3059Z" fill="currentColor"/>
<path d="M84 1.00001L91.7109 12.4235L84 23.593H87.0588L93.1823 14.1647L94.5059 12.4235L93.1823 10.6824L87.0588 1.2353L84 1.00001Z" fill="currentColor"/>
<path d="M110.165 23.593H98.0941V1H118.2V5.53971H103.024V14.1353H110.165V18.1765H103.024V23.593H110.165Z" fill="currentColor"/>
<path d="M129.024 23.593H119.118V1H129.024V5.53971H121.935V10.0882H128.32V14.2235H121.935V19.0532H129.024V23.593Z" fill="currentColor"/>
<path d="M141.671 18.1765V1H133.96V23.593H141.671V20.9412C140.482 21.9059 139.141 22.3882 137.647 22.3882C136.153 22.3882 134.941 21.9471 134.012 21.0647C133.082 20.1824 132.618 19.0353 132.618 17.6235C132.618 16.0353 133.159 14.8118 134.241 13.9529C135.324 13.0941 136.753 12.6647 138.529 12.6647H141.671V10.8C141.671 9.68235 141.388 8.8 140.824 8.15294C140.259 7.50588 139.435 7.18235 138.353 7.18235C137.459 7.18235 136.682 7.42353 136.024 7.90588C135.365 8.38824 134.988 9.04706 134.894 9.88235H131.053C131.182 8.16471 131.841 6.81176 133.029 5.82353C134.218 4.83529 135.8 4.34118 137.776 4.34118C140.129 4.34118 141.806 5.08235 142.806 6.56471C143.806 8.04706 144.306 9.88235 144.306 12.0706V18.1765H141.671ZM141.671 16.3294H138.6C137.588 16.3294 136.788 16.5412 136.194 16.9647C135.6 17.3882 135.306 17.9176 135.306 18.5529C135.306 19.1059 135.535 19.5471 136 19.8765C136.465 20.2059 137.047 20.3706 137.741 20.3706C138.588 20.3706 139.476 20.0118 140.406 19.2941L141.671 18.4V16.3294Z" fill="currentColor"/>
<path d="M157.988 23.593H155.11L149.455 1H152.402L156.549 18.2412L160.625 1H163.572L157.988 23.593Z" fill="currentColor"/>
<path d="M179.671 23.593H169.765V1H179.671V5.53971H172.582V10.0882H178.967V14.2235H172.582V19.0532H179.671V23.593Z" fill="currentColor"/>
</svg> 